<svg xmlns="http://www.w3.org/2000/svg" version="1.1" x="0" y="0" viewBox="0 0 21 23" xml:space="preserve">
  <linearGradient id="-YcX7qOGva" gradientUnits="userSpaceOnUse" x1="-282.297" y1="392.488" x2="-279.147" y2="389.612" gradientTransform="matrix(21 0 0 -23 5900 9000)">
    <stop offset=".507" stop-color="#cb529e"/>
    <stop offset=".673" stop-color="#397dfd"/>
  </linearGradient>
  <path d="M8.5.5c1.3-.7 2.8-.7 4 0L19 4.3c1.3.7 2 2.1 2 3.5v7.5c0 1.4-.8 2.8-2 3.5l-6.5 3.7c-1.3.7-2.8.7-4 0L2 18.7c-1.3-.7-2-2.1-2-3.5V7.8C0 6.3.8 5 2 4.3L8.5.5z" fill="url(#-YcX7qOGva)"/>
  <path d="M9.8 10.7c0-.1.1-.1.2-.1s.1.1.1.2l-.1.1-.1.1c0 .1-.1.1-.2.1s-.1-.1-.1-.2l.1-.1.1-.1zm-.4.7c0-.1.1-.1.2-.1s.1.1.1.2l-.1.1c-.2.4-.4.8-.6 1.1v.3s-.1.1-.2 0c-.1 0-.1-.1-.1-.2l.1-.2.6-1.2zm-1 3.4c.3 0 .5.2.5.5s-.2.5-.5.5-.5-.2-.5-.5c-.1-.2.2-.5.5-.5zm1.2-.7c.1 0 .2.1.2.2s-.1.2-.2.2-.2-.1-.2-.2.1-.2.2-.2zm-.2.6c.2 0 .3.1.3.3 0 .2-.1.3-.3.3-.2 0-.3-.1-.3-.3 0-.1.1-.3.3-.3z" fill="#fff"/>
  <path d="M9.1 7l-.2-.2h0c-.1-.1-.2-.3-.2-.4 0-.2.1-.3.2-.5.1-.1.3-.2.5-.2h2.3c.2 0 .3.1.4.2h0c.1.1.2.3.2.5s-.1.3-.2.4h0l-.2.2v2.4l.4.8c.8 1.6 2.3 4.6 2.3 5.3 0 .5-.2.9-.5 1.2h0c-.3.3-.8.5-1.2.5H8.2c-.5 0-.9-.2-1.2-.5h0c-.3-.3-.5-.8-.5-1.2 0-.7 1.5-3.8 2.3-5.3.1-.4.2-.6.3-.8V7z" fill="none" stroke="#fff" stroke-width="1.2" stroke-miterlimit="10"/>
</svg>
