<svg xmlns="http://www.w3.org/2000/svg" version="1.1" x="0" y="0" viewBox="0 0 21 23" xml:space="preserve">
  <linearGradient id="i_5e5jA3Ba" gradientUnits="userSpaceOnUse" x1="-279.219" y1="388.853" x2="-281.326" y2="392.186" gradientTransform="matrix(21 0 0 -23 5900 9000)">
    <stop offset=".507" stop-color="#cb529e"/>
    <stop offset=".673" stop-color="#397dfd"/>
  </linearGradient>
  <path d="M8.5.5c1.3-.7 2.8-.7 4 0L19 4.3c1.3.7 2 2.1 2 3.5v7.5c0 1.4-.8 2.8-2 3.5l-6.5 3.7c-1.3.7-2.8.7-4 0L2 18.7c-1.3-.7-2-2.1-2-3.5V7.8C0 6.3.8 5 2 4.3L8.5.5z" fill="url(#i_5e5jA3Ba)"/>
  <path d="M9.9 10.8c0-.1.1-.1.2-.1s.1.1.1.2v.2c0 .1-.1.1-.2.1s-.1-.1-.1-.2v-.2zm-.2.6c0-.1.1-.1.2-.1s.1.1.1.2v.1c-.2.3-.3.6-.4.9l-.1.1c0 .1-.1.1-.2.1s-.1-.1-.1-.2l.1-.1c.1-.3.3-.6.4-.9v-.1zm-.9 2.7c.2 0 .4.2.4.4s-.2.4-.4.4-.4-.2-.4-.4.2-.4.4-.4zm1-.5c.1 0 .2.1.2.2s-.1.2-.2.2-.2-.1-.2-.2c0-.2.1-.2.2-.2zm-.2.4c.1 0 .2.1.2.2s-.1.2-.2.2-.2-.1-.2-.2.1-.2.2-.2z" fill="#fff"/>
  <path d="M9.4 8c-.1 0-.1-.1-.2-.1h0c0-.1-.1-.3-.1-.4 0-.1.1-.3.1-.4.1 0 .3-.1.4-.1h1.8c.1 0 .3.1.3.1h0c.1.1.1.2.1.4 0 .1-.1.3-.1.3h0c0 .1-.1.1-.2.1v1.9c.1.1.2.3.3.6.6 1.2 1.8 3.6 1.8 4.2 0 .4-.2.7-.4 1h0c-.3.2-.6.4-1 .4H8.7c-.4 0-.7-.2-1-.4h0c-.2-.2-.4-.6-.4-1 0-.6 1.2-2.9 1.8-4.2.1-.3.2-.5.3-.6V8z" fill="none" stroke="#fff" stroke-width="1.2" stroke-miterlimit="10"/>
</svg>
