<svg xmlns="http://www.w3.org/2000/svg" version="1.1" x="0" y="0" viewBox="0 0 21 23" xml:space="preserve">
  <linearGradient id="n9-x7X8-ka" gradientUnits="userSpaceOnUse" x1="-5.721" y1="28.336" x2="31.724" y2="-8.22" gradientTransform="matrix(1 0 0 -1 0 24)">
    <stop offset=".002" stop-color="#fee93d"/>
    <stop offset="1" stop-color="#f89943"/>
  </linearGradient>
  <path d="M8.5.5c1.3-.7 2.8-.7 4 0L19 4.3c1.3.7 2 2.1 2 3.5v7.5c0 1.4-.8 2.8-2 3.5l-6.5 3.7c-1.3.7-2.8.7-4 0L2 18.7c-1.3-.7-2-2.1-2-3.5V7.8C0 6.3.8 5 2 4.3L8.5.5z" fill="url(#n9-x7X8-ka)"/>
  <path d="M6.6 13c0 .1.1.2.1.2v.2c0 .2-.1.3-.2.4 0 .2-.1.2-.3.2-.1 0-.2 0-.3-.1-.2-.1-.4-.3-.6-.5-.2-.2-.5-.4-.7-.6-.3-.2-.6-.5-.9-.7-.3-.2-.6-.5-.8-.6-.1-.2-.2-.3-.2-.5s.1-.4.3-.5c0 0 .1-.1.3-.2.2-.1.3-.3.5-.5s.4-.4.7-.6l.5-.5c.2-.2.4-.3.5-.4l.3-.3h.3c.2 0 .4 0 .5.1.1.1.2.2.2.4s-.1.3-.2.5c-.2.1-.3.3-.6.5-.2.2-.4.3-.7.5-.2.2-.4.4-.7.5-.2.2-.4.3-.5.4L6.6 13zm5-6.9c.2-.3.4-.4.6-.4.2 0 .3.1.4.2.1.1.2.3.2.4v.2l-2.4 6.1c-.2.6-.4 1.1-.7 1.7-.2.6-.5 1.1-.7 1.7l-.3.3c-.1.1-.2.1-.3.1-.2 0-.3-.1-.4-.2-.1-.1-.2-.3-.2-.5v-.2l2.4-6c.2-.6.5-1.1.7-1.7.2-.6.5-1.2.7-1.7zm4.9 4.9l-1.2-1c-.2-.2-.5-.4-.7-.6-.2-.2-.4-.4-.6-.5v-.4c0-.2.1-.3.2-.4 0-.1.2-.1.4-.1.1 0 .2 0 .3.1.1 0 .2.1.4.3.2.2.4.4.7.6.3.2.5.4.8.7s.5.4.7.6l.4.4c.2.2.3.3.3.5 0 .1-.1.3-.2.4l-1.5 1.2-1.6 1.2h-.4c-.2 0-.3-.1-.4-.2-.1-.1-.2-.2-.2-.4 0-.1.1-.3.2-.4l2.4-2z" fill="#fff"/>
</svg>
