<svg xmlns="http://www.w3.org/2000/svg" version="1.1" x="0" y="0" viewBox="0 0 64 80" xml:space="preserve">
  <path d="M50.361 54.518h-1.232c-.192-4.48-1.788-9.117-4.751-13.795-2.332-3.68-5.069-6.686-7.161-8.723 2.092-2.037 4.829-5.043 7.161-8.725 2.963-4.678 4.559-9.313 4.751-13.795h1.232a.918.918 0 100-1.838H13.639a.919.919 0 100 1.838h1.486c.192 4.482 1.789 9.117 4.752 13.795 2.331 3.682 5.069 6.688 7.16 8.725-2.091 2.037-4.829 5.043-7.16 8.723-2.963 4.68-4.56 9.314-4.752 13.795h-1.486a.92.92 0 000 1.84h36.723a.92.92 0 10-.001-1.84zM22.052 19.174a.92.92 0 011.11-1.306c1.499.52 3.164.783 4.948.783 3.802 0 7.537-1.199 10.002-2.205 2.683-1.094 4.459-2.189 4.477-2.201a.918.918 0 011.35 1.093c-1.042 2.891-2.726 5.854-5.004 8.811a48.386 48.386 0 01-5.125 5.641l-1.054.988a.919.919 0 01-1.259 0l-1.055-.988c-2.001-1.882-5.754-5.759-8.39-10.616zm-2.51 32.105c.774-3.389 2.473-6.906 5.046-10.451 2.106-2.904 4.347-5.201 5.855-6.617l1.055-.988a.92.92 0 011.259 0l1.054.988c1.509 1.416 3.749 3.713 5.856 6.617 2.563 3.531 4.258 7.035 5.036 10.414a.92.92 0 01-.888 1.162H20.439a.921.921 0 01-.897-1.125z"/>
  <text x="0" y="79" fill="#000" font-size="5" font-weight="bold" font-family="'Helvetica Neue', Helvetica, Arial-Unicode, Arial, Sans-serif">
    Created by Rifai
  </text>
  <text x="0" y="84" fill="#000" font-size="5" font-weight="bold" font-family="'Helvetica Neue', Helvetica, Arial-Unicode, Arial, Sans-serif">
    from the Noun Project
  </text>
</svg>
