<svg xmlns="http://www.w3.org/2000/svg" viewBox="0 0 24 24">
  <circle cx="12" cy="12" fill="#ffd54f" r="10.8"/>
  <path d="M19.958 7.509c-.226-.029-5.33-.638-7.958.766-2.628-1.403-7.731-.795-7.958-.766a.674.674 0 00-.592.669c0 1.898.873 5.487 4.175 5.487 2.215 0 3.612-1.68 4.375-3.055.764 1.375 2.16 3.055 4.375 3.055 3.302 0 4.175-3.589 4.175-5.487a.674.674 0 00-.592-.669z" fill="#455a64"/>
  <path d="M12 24C5.383 24 0 18.617 0 12S5.383 0 12 0s12 5.383 12 12-5.383 12-12 12zm0-22.5C6.21 1.5 1.5 6.21 1.5 12S6.21 22.5 12 22.5 22.5 17.79 22.5 12 17.79 1.5 12 1.5z"/>
  <path d="M7.139 14.017C3.47 14.017 2.5 10.029 2.5 7.92a.75.75 0 01.658-.744c.264-.034 6.51-.783 9.265 1.097a.75.75 0 01.309.782c-.381 1.716-2.041 4.962-5.593 4.962zM4.042 8.592c.136 1.281.705 3.924 3.096 3.924 2.528 0 3.607-2.227 3.973-3.269-1.843-.871-5.224-.81-7.069-.655z"/>
  <path d="M16.861 14.017c-3.552 0-5.212-3.246-5.593-4.962a.75.75 0 01.309-.782c2.755-1.879 9-1.13 9.265-1.097a.749.749 0 01.658.743c0 2.109-.97 6.098-4.639 6.098zm-3.973-4.769c.366 1.042 1.445 3.269 3.973 3.269 2.391 0 2.96-2.643 3.096-3.924-1.844-.155-5.228-.215-7.069.655zM12 19.985a8.147 8.147 0 01-5.78-2.391.75.75 0 111.061-1.061c1.261 1.261 2.937 1.955 4.72 1.955s3.459-.694 4.72-1.955a.75.75 0 111.061 1.061A8.155 8.155 0 0112 19.985z"/>
</svg>
