<svg xmlns="http://www.w3.org/2000/svg" version="1.1" x="0" y="0" viewBox="0 0 21 23" xml:space="preserve">
  <linearGradient id="f1SfE0y2da" gradientUnits="userSpaceOnUse" x1="-5.721" y1="28.336" x2="31.724" y2="-8.22" gradientTransform="matrix(1 0 0 -1 0 24)">
    <stop offset=".002" stop-color="#d1dd27"/>
    <stop offset="1" stop-color="#3cb54a"/>
  </linearGradient>
  <path d="M8.5.5c1.3-.7 2.8-.7 4 0L19 4.3c1.3.7 2 2.1 2 3.5v7.5c0 1.4-.8 2.8-2 3.5l-6.5 3.7c-1.3.7-2.8.7-4 0L2 18.7c-1.3-.7-2-2.1-2-3.5V7.8C0 6.3.8 5 2 4.3L8.5.5z" fill="url(#f1SfE0y2da)"/>
  <path d="M10.5 15.3c1.9 0 3.2-1 3.2-2.4 0-1.8-1.3-2.5-3-2.7-1-.2-2.1-.3-2.1-1.3 0-.8.7-1.3 1.8-1.3 1 0 1.8.4 2.1 1.1.1.3.3.4.5.4h.2c.2 0 .4-.1.5-.3.1-.2.1-.4.1-.5-.5-1.2-1.8-1.9-3.3-1.9-1.8 0-3.1 1-3.1 2.6 0 1.8 1.3 2.3 2.9 2.5 1.1.1 2.2.3 2.2 1.3 0 .8-.7 1.3-1.7 1.3S9 13.7 8.7 13c-.1-.3-.3-.4-.6-.4h-.4c-.2 0-.4.1-.5.3-.1.2-.1.4-.1.5.6 1.1 1.8 1.9 3.4 1.9z" fill="#fff"/>
  <path d="M10.5 16.9c.4 0 .7-.3.7-.7V5.4c0-.4-.3-.7-.7-.7-.4 0-.7.3-.7.7v10.8c0 .4.3.7.7.7z" fill="#fcfcfd"/>
</svg>
