<svg xmlns="http://www.w3.org/2000/svg" version="1.1" x="0" y="0" viewBox="0 0 21 23" xml:space="preserve">
  <linearGradient id="WQaatctbZa" gradientUnits="userSpaceOnUse" x1="-5.721" y1="28.336" x2="31.724" y2="-8.22" gradientTransform="matrix(1 0 0 -1 0 24)">
    <stop offset=".002" stop-color="#d1dd27"/>
    <stop offset="1" stop-color="#3cb54a"/>
  </linearGradient>
  <path d="M8.5.5c1.3-.7 2.8-.7 4 0L19 4.3c1.3.7 2 2.1 2 3.5v7.5c0 1.4-.8 2.8-2 3.5l-6.5 3.7c-1.3.7-2.8.7-4 0L2 18.7c-1.3-.7-2-2.1-2-3.5V7.8C0 6.3.8 5 2 4.3L8.5.5z" fill="url(#WQaatctbZa)"/>
  <path d="M10.8 10c-1.1-.1-2-.3-2-1.1 0-.7.6-1.2 1.6-1.2.9 0 1.6.4 1.9 1 .1.3.4.6.8.6h.2c.6 0 1-.6.7-1.1-.5-1.2-1.8-2-3.5-2-2.2 0-3.6 1.2-3.6 3 0 2 1.7 2.3 3.4 2.5 1.1.1 2 .3 2 1.1 0 .7-.6 1.2-1.6 1.2-.9 0-1.6-.4-1.9-1-.1-.3-.4-.6-.8-.6h-.3c-.6 0-1 .6-.7 1.1.5 1.2 1.8 2 3.5 2 2.2 0 3.6-1.2 3.6-3 .1-2-1.7-2.3-3.3-2.5z" fill="#fff"/>
  <path d="M10.5 16.8c-.4 0-.8-.4-.8-.8V5.6c0-.4.4-.8.8-.8s.8.4.8.8V16c0 .5-.4.8-.8.8z" fill="#fcfcfd"/>
</svg>
